<svg xmlns="http://www.w3.org/2000/svg" viewBox="0 0 300.31 344.66"><defs><style>.cls-1,.cls-5,.cls-6,.cls-7{fill:none;}.cls-1,.cls-7{stroke:#2f98d4;}.cls-1{stroke-miterlimit:10;stroke-width:3px;}.cls-2{fill:#e1f1fb;}.cls-3{fill:#2f98d4;}.cls-4{fill:#0b3352;}.cls-5{stroke:#0b3352;}.cls-5,.cls-6,.cls-7{stroke-linecap:round;stroke-linejoin:round;stroke-width:2px;}.cls-6{stroke:#e1f1fb;}</style></defs><title>the-benefits-of-single-page-deployment</title><g id="Layer_2" data-name="Layer 2"><g id="Layer_1-2" data-name="Layer 1"><line class="cls-1" x1="214.53" y1="247.89" x2="164.45" y2="169.74"/><line class="cls-1" x1="161.83" y1="163.86" x2="81.77" y2="116.96"/><circle class="cls-1" cx="240.9" cy="282.15" r="43.24"/><circle class="cls-2" cx="161.83" cy="163.86" r="64.21"/><path class="cls-3" d="M161.83,101.15a62.71,62.71,0,1,1-62.71,62.71,62.71,62.71,0,0,1,62.71-62.71m0-3a65.71,65.71,0,1,0,65.71,65.71,65.79,65.79,0,0,0-65.71-65.71Z"/><circle class="cls-1" cx="45.94" cy="96.69" r="41.17"/><path class="cls-3" d="M240.9,311.51a.85.85,0,0,1-.31-.06,48.9,48.9,0,0,1-11.13-6.77c-7.35-6-11.23-13.06-11.23-20.53V265.08a4.35,4.35,0,0,1,4.48-4.2h.06s.34,0,.92,0a30.43,30.43,0,0,0,16.75-5.1.78.78,0,0,1,.92,0,30.43,30.43,0,0,0,16.75,5.1c.59,0,.92,0,.92,0h.06a4.35,4.35,0,0,1,4.48,4.2v19.07c0,7.47-3.88,14.57-11.23,20.53a48.67,48.67,0,0,1-11.13,6.77A.81.81,0,0,1,240.9,311.51Zm-18.22-49a2.71,2.71,0,0,0-2.82,2.57v19.07c0,15.78,18.42,24.5,21,25.66,2.62-1.16,21-9.89,21-25.66V265.08a2.71,2.71,0,0,0-2.82-2.57c-.11,0-.46,0-1,0a32.22,32.22,0,0,1-17.21-5.08,32.2,32.2,0,0,1-17.21,5.08C223.14,262.53,222.79,262.51,222.68,262.51Z"/><path class="cls-3" d="M240.9,305.33a.78.78,0,0,1-.37-.09c-5-2.6-16.71-9.86-16.71-21.09V272.2a.82.82,0,0,1,.81-.82.82.82,0,0,1,.82.82v11.95c0,10.07,10.51,16.83,15.45,19.44,4.94-2.61,15.46-9.37,15.46-19.44V268.08a38.73,38.73,0,0,1-15.46-4.16,37.32,37.32,0,0,1-11.15,3.68.82.82,0,0,1-.94-.67.83.83,0,0,1,.67-.94,35.88,35.88,0,0,0,11-3.71.81.81,0,0,1,.77,0,36.83,36.83,0,0,0,15.91,4.2.81.81,0,0,1,.79.81v16.86c0,11.23-11.69,18.49-16.71,21.09A.85.85,0,0,1,240.9,305.33Z"/><path class="cls-3" d="M240.9,270.12a.82.82,0,0,1-.81-.82V263a.82.82,0,0,1,.81-.82.82.82,0,0,1,.82.82v6.3A.82.82,0,0,1,240.9,270.12Z"/><path class="cls-3" d="M240.9,305.33a.82.82,0,0,1-.81-.82v-6a.82.82,0,0,1,.81-.82.82.82,0,0,1,.82.82v6A.82.82,0,0,1,240.9,305.33Z"/><line class="cls-1" x1="103.63" y1="17.8" x2="70.23" y2="64.04"/><path class="cls-2" d="M106,27.53a13.09,13.09,0,0,1-11.55-7A13,13,0,0,1,106,1.5a13,13,0,0,1,12.41,16.94A13,13,0,0,1,106,27.53Z"/><path class="cls-3" d="M106,3a11.37,11.37,0,0,1,3.48.54A11.51,11.51,0,0,1,106,26a11.74,11.74,0,0,1-3.48-.54A11.51,11.51,0,0,1,106,3m0-3h0a14.51,14.51,0,0,0-4.38,28.34A14.28,14.28,0,0,0,106,29a14.52,14.52,0,0,0,0-29Z"/><line class="cls-1" x1="153.18" y1="328.6" x2="202.69" y2="302.38"/><path class="cls-2" d="M149.44,343.16a13,13,0,1,1,8.5-3.16A13,13,0,0,1,149.44,343.16Z"/><path class="cls-3" d="M149.43,318.64a11.52,11.52,0,1,1-7.51,2.8,11.45,11.45,0,0,1,7.51-2.8m0-3h0a14.51,14.51,0,1,0,11,5,14.47,14.47,0,0,0-11-5Z"/><path class="cls-4" d="M169.21,287.58a.9.9,0,0,1-.7-.33.91.91,0,0,1,.12-1.29l8.39-6.89-8.39-6.89a.91.91,0,0,1,1.16-1.41l9.25,7.59a1,1,0,0,1,.34.71.92.92,0,0,1-.34.71l-9.25,7.6A.89.89,0,0,1,169.21,287.58Z"/><path class="cls-4" d="M178.46,280H150.15a.92.92,0,0,1,0-1.83h28.31a.92.92,0,1,1,0,1.83Z"/><path class="cls-4" d="M273.17,121.79a.93.93,0,0,1-.71-.34.92.92,0,0,1,.13-1.29l8.38-6.88-8.38-6.89a.92.92,0,1,1,1.16-1.42l9.25,7.6a.92.92,0,0,1,0,1.41l-9.25,7.6A.9.9,0,0,1,273.17,121.79Z"/><path class="cls-4" d="M282.42,114.19H254.11a.92.92,0,1,1,0-1.83h28.31a.92.92,0,0,1,0,1.83Z"/><path class="cls-2" d="M157.45,273.42H109.87c-1-.85-.38-1.91.46-1.91h47.06a1,1,0,0,1,1,.79A1,1,0,0,1,157.45,273.42Z"/><path class="cls-2" d="M206.56,97.91h55.93c1.13,1,.44,2.24-.54,2.24H206.62a1.17,1.17,0,0,1-1.17-.93A1.13,1.13,0,0,1,206.56,97.91Z"/><path class="cls-3" d="M51.41,99.77a.48.48,0,0,1-.26-.07c-.38-.18-9.23-4.65-9.23-11.35,0-2.53,1.17-5.23,4.44-5.23a.58.58,0,0,1,0,1.16c-3,0-3.27,2.85-3.27,4.07,0,5.39,6.88,9.4,8.32,10.17,1.43-.77,8.31-4.79,8.31-10.17,0-1.22-.32-4.07-3.27-4.07A4.84,4.84,0,0,0,52,87a.59.59,0,0,1-.54.36h0a.57.57,0,0,1-.54-.36,4.9,4.9,0,0,0-1.26-1.63.57.57,0,0,1-.07-.82.59.59,0,0,1,.82-.07,5.87,5.87,0,0,1,1,1.14,6,6,0,0,1,5.05-2.54c3.27,0,4.44,2.7,4.44,5.23,0,6.7-8.85,11.17-9.22,11.35A.54.54,0,0,1,51.41,99.77Z"/><path class="cls-5" d="M64,103.78H27.91V81a1.89,1.89,0,0,1,1.9-1.89H62.07A1.89,1.89,0,0,1,64,81Z"/><path class="cls-5" d="M64,103.78H27.91L24.7,116.6A1.9,1.9,0,0,0,26.54,119H65.33a1.9,1.9,0,0,0,1.84-2.36Z"/><path class="cls-5" d="M40.29,113.27H51.58a1,1,0,0,1,1,1V119a0,0,0,0,1,0,0H39.29a0,0,0,0,1,0,0v-4.69A1,1,0,0,1,40.29,113.27Z"/><path class="cls-5" d="M202.68,61.77h0a3.09,3.09,0,0,1-3.09,3.1H181a3.09,3.09,0,0,1-3.09-3.1V6.09A3.09,3.09,0,0,1,181,3h18.56a3.09,3.09,0,0,1,3.09,3.09v3.1"/><rect class="cls-5" x="196.5" y="15.37" width="52.59" height="40.21" rx="1"/><rect class="cls-5" x="215.06" y="55.59" width="15.47" height="9.28"/><line class="cls-5" x1="208.87" y1="64.87" x2="236.71" y2="64.87"/><line class="cls-5" x1="187.22" y1="12.28" x2="193.4" y2="12.28"/><polygon class="cls-6" points="276.25 167.53 281.69 185.15 299.31 185.15 285.06 196.03 290.5 213.65 276.25 202.76 262 213.65 267.44 196.03 253.19 185.15 270.81 185.15 276.25 167.53"/><path class="cls-7" d="M10.74,220.89l-4.22-7,5.07-5.07,7,4.22h0a19.22,19.22,0,0,1,4.3-1.79l2-8h7.17l2,8A19.1,19.1,0,0,1,38.37,213h0l7-4.22,5.07,5.07-4.23,7h0a18.79,18.79,0,0,1,1.8,4.3l8,2v7.17l-8,2a18.86,18.86,0,0,1-1.8,4.31h0l4.23,7-5.07,5.07-7-4.23h0a18.68,18.68,0,0,1-4.31,1.8l-2,8H24.91l-2-8a18.79,18.79,0,0,1-4.3-1.8h0l-7,4.23-5.07-5.07,4.22-7h0A19.29,19.29,0,0,1,9,236.33l-8-2v-7.17l8-2a19.22,19.22,0,0,1,1.79-4.3Z"/><circle class="cls-7" cx="28.49" cy="230.76" r="9.16"/><path class="cls-7" d="M51.49,262.67,48.67,258l3.38-3.38,4.69,2.82h0a12.79,12.79,0,0,1,2.87-1.2l1.32-5.3h4.78l1.32,5.3a12.79,12.79,0,0,1,2.87,1.2h0l4.69-2.82L78,258l-2.82,4.69h0a12.32,12.32,0,0,1,1.19,2.87l5.31,1.32v4.79L76.34,273a12.32,12.32,0,0,1-1.19,2.87h0L78,280.53l-3.38,3.38-4.69-2.82h0a12.79,12.79,0,0,1-2.87,1.2l-1.32,5.3H60.93l-1.32-5.3a12.79,12.79,0,0,1-2.87-1.2h0l-4.69,2.82-3.38-3.38,2.82-4.69h0A12.76,12.76,0,0,1,50.3,273L45,271.65v-4.79l5.31-1.32a12.76,12.76,0,0,1,1.19-2.87Z"/><circle class="cls-7" cx="63.32" cy="269.26" r="6.11"/><path class="cls-4" d="M199.06,193.11a1.18,1.18,0,0,0-.08-.39l0-.1s0,0,0-.07L193.07,182V148.21a5,5,0,0,0-5-5h-1.67V125.34a1.21,1.21,0,0,0-1.2-1.19H134.83a1.23,1.23,0,0,0-1.2,1.19V143.2H132a5,5,0,0,0-5,5V182l-5.88,10.58a.11.11,0,0,1,0,.07l0,.1a1.18,1.18,0,0,0-.07.39h0v3.57a4.76,4.76,0,0,0,4.73,4.73h68.68a4.74,4.74,0,0,0,4.73-4.73v-3.57Zm-63-56.7H184V174.2H136Zm0-9.87H184V134H136Zm-6.72,21.67a2.65,2.65,0,0,1,2.66-2.62h1.67v29.8a1.21,1.21,0,0,0,1.2,1.19h50.32a1.19,1.19,0,0,0,1.2-1.19v-29.8H188a2.65,2.65,0,0,1,2.66,2.62V181.1H129.3Zm-.5,35.27h62.38l4.69,8.48H124.11Zm67.91,13.2a2.37,2.37,0,0,1-2.38,2.35H125.65a2.34,2.34,0,0,1-2.34-2.35V194.3h73.4Z"/><path class="cls-4" d="M179.37,129.44a1.1,1.1,0,0,0-.35.84,1.28,1.28,0,0,0,.32.84,1.36,1.36,0,0,0,.84.35,1.23,1.23,0,0,0,.84-.35,1.13,1.13,0,0,0,.35-.84,1.06,1.06,0,0,0-.35-.84A1.18,1.18,0,0,0,179.37,129.44Z"/><path class="cls-4" d="M174.75,129.09a1.19,1.19,0,1,0,1.2,1.19A1.2,1.2,0,0,0,174.75,129.09Z"/><path class="cls-4" d="M168.48,129.44a1.21,1.21,0,0,0-.35.84,1.31,1.31,0,0,0,.35.84,1.23,1.23,0,0,0,.84.35,1.07,1.07,0,0,0,.81-.35,1.22,1.22,0,0,0,.39-.84,1.13,1.13,0,0,0-.39-.84A1.18,1.18,0,0,0,168.48,129.44Z"/><path class="cls-4" d="M163.93,145.79a1.21,1.21,0,0,0-1.54.71l-7,18.73a1.18,1.18,0,0,0,.7,1.54,1.55,1.55,0,0,0,.43.07,1.15,1.15,0,0,0,1.08-.77l7-18.77A1.21,1.21,0,0,0,163.93,145.79Z"/><path class="cls-4" d="M150.9,149.05a1.16,1.16,0,0,0-1.64-.14l-7.78,6.44a1.19,1.19,0,0,0-.42.92,1.09,1.09,0,0,0,.42.91l7.78,6.48a1.2,1.2,0,0,0,.76.28,1.11,1.11,0,0,0,.88-.42,1.14,1.14,0,0,0-.14-1.68l-6.69-5.57,6.69-5.53A1.15,1.15,0,0,0,150.9,149.05Z"/><path class="cls-4" d="M170.72,148.91a1.17,1.17,0,0,0-1.65.14,1.23,1.23,0,0,0,.15,1.69l6.69,5.53-6.69,5.57a1.22,1.22,0,0,0-.15,1.68,1.2,1.2,0,0,0,.91.42,1.15,1.15,0,0,0,.74-.28l7.81-6.48a1.18,1.18,0,0,0,.42-.91,1.3,1.3,0,0,0-.42-.92Z"/></g></g></svg>